<?xml version="1.0" encoding="utf-8"?>
<!-- Generator: Adobe Illustrator 24.0.0, SVG Export Plug-In . SVG Version: 6.00 Build 0)  -->
<svg version="1.1" id="Layer_1" xmlns="http://www.w3.org/2000/svg" xmlns:xlink="http://www.w3.org/1999/xlink" x="0px" y="0px"
	 viewBox="0 0 800 600" style="enable-background:new 0 0 800 600;" xml:space="preserve">
<style type="text/css">
	.st0{fill-rule:evenodd;clip-rule:evenodd;fill:#1D1D1B;}
	.st1{fill-rule:evenodd;clip-rule:evenodd;fill:#775E51;}
	.st2{fill-rule:evenodd;clip-rule:evenodd;fill:#C35E34;}
	.st3{fill-rule:evenodd;clip-rule:evenodd;fill:#98664E;}
	.st4{fill-rule:evenodd;clip-rule:evenodd;fill:#A86547;}
	.st5{fill-rule:evenodd;clip-rule:evenodd;fill:#5C5048;}
	.st6{fill-rule:evenodd;clip-rule:evenodd;fill:#6F5B4F;}
	.st7{fill-rule:evenodd;clip-rule:evenodd;fill:#B9643D;}
	.st8{fill-rule:evenodd;clip-rule:evenodd;fill:#B06944;}
	.st9{fill-rule:evenodd;clip-rule:evenodd;fill:#2A8AB0;}
	.st10{fill-rule:evenodd;clip-rule:evenodd;fill:#70584E;}
	.st11{fill-rule:evenodd;clip-rule:evenodd;fill:#D13722;}
	.st12{fill-rule:evenodd;clip-rule:evenodd;fill:#775B4F;}
	.st13{fill-rule:evenodd;clip-rule:evenodd;fill:#C9592E;}
	.st14{fill-rule:evenodd;clip-rule:evenodd;fill:#855F4F;}
	.st15{fill-rule:evenodd;clip-rule:evenodd;fill:#9E5E48;}
	.st16{fill-rule:evenodd;clip-rule:evenodd;fill:#534843;}
	.st17{fill-rule:evenodd;clip-rule:evenodd;fill:#8F604D;}
	.st18{fill-rule:evenodd;clip-rule:evenodd;fill:#3F3B37;}
	.st19{fill-rule:evenodd;clip-rule:evenodd;fill:#C25633;}
	.st20{fill-rule:evenodd;clip-rule:evenodd;fill:#90644F;}
	.st21{fill-rule:evenodd;clip-rule:evenodd;fill:#63544B;}
	.st22{fill-rule:evenodd;clip-rule:evenodd;fill:#358AAD;}
	.st23{fill-rule:evenodd;clip-rule:evenodd;fill:#8A604E;}
	.st24{fill-rule:evenodd;clip-rule:evenodd;fill:#7395B1;}
	.st25{fill-rule:evenodd;clip-rule:evenodd;fill:#81AACD;}
	.st26{fill-rule:evenodd;clip-rule:evenodd;fill:#63524A;}
	.st27{fill-rule:evenodd;clip-rule:evenodd;fill:#975F4B;}
	.st28{fill-rule:evenodd;clip-rule:evenodd;fill:#5C4E47;}
	.st29{fill-rule:evenodd;clip-rule:evenodd;fill:#FBBB04;}
	.st30{fill-rule:evenodd;clip-rule:evenodd;fill:#FFFFFF;}
	.st31{fill-rule:evenodd;clip-rule:evenodd;fill:#FBE0D5;}
	.st32{fill-rule:evenodd;clip-rule:evenodd;fill:#5C5957;}
	.st33{fill-rule:evenodd;clip-rule:evenodd;fill:#FDECE4;}
	.st34{fill-rule:evenodd;clip-rule:evenodd;fill:#FFCE00;}
	.st35{fill-rule:evenodd;clip-rule:evenodd;fill:#FDF3EF;}
	.st36{fill-rule:evenodd;clip-rule:evenodd;fill:#FDC700;}
	.st37{fill-rule:evenodd;clip-rule:evenodd;fill:#262625;}
	.st38{fill-rule:evenodd;clip-rule:evenodd;fill:#E4192D;}
	.st39{fill-rule:evenodd;clip-rule:evenodd;fill:#DB2F31;}
	.st40{fill-rule:evenodd;clip-rule:evenodd;fill:#3F3E3D;}
	.st41{fill-rule:evenodd;clip-rule:evenodd;fill:#5D5754;}
	.st42{fill-rule:evenodd;clip-rule:evenodd;fill:#302F2E;}
	.st43{fill-rule:evenodd;clip-rule:evenodd;fill:#DBA13B;}
	.st44{fill-rule:evenodd;clip-rule:evenodd;fill:#FCC100;}
	.st45{fill-rule:evenodd;clip-rule:evenodd;fill:#413F3D;}
	.st46{fill-rule:evenodd;clip-rule:evenodd;fill:#DAB5A6;}
	.st47{fill-rule:evenodd;clip-rule:evenodd;fill:#E0BAAA;}
</style>
<g>
	<path class="st0" d="M265.1,501.3c-6.3,0-12.6,0-19,0c-6.1-1-10.3-2.3-13.8-2.6c6.8,22.5-40.6,31-55,30.2
		c-11.9-1.3-26.3-3.8-37.2-9.2c-3.4-14-4.9-56.6,12.7-64.8c5.1-0.8,3.1-6.7,3.1-10.1c6.1-27.5,21.1-42,48-43.2
		c17.7-14.6,26.1,1.5,44,3.9c2.6,0.9,5.2,2.6,8,2.2c0.4-14.8,1.8-30.6,14-40.4c1.1-12.7-1.4-17.2,3.6-29.4
		c13.4-19.1,32-28.8,54.8-20.8c1.7,0,3.1-2.5,3.9-3.8c4.6-3.4,35.1-16.3,26.5-1.2c0,2.7,19.1-10.1,22.6-12.5
		c16.8-6.7,6.4-10.6,0.1-22.8c-9.1-10.6-5.1-29-16.9-35.2c-16.2-10.1-22.1-25.9-11.8-41.7c2.5-8.5-0.3-16.8,10.3-21.5
		c8.3-9.4,9.1-23.7,24.8-23.7c3.3,1.2,3.7-0.6,5.7-3.2c15.5-11.9,19.7-2.5,33.2,4.9c9.3,0.6,12.9,6.1,10.1-7
		c-2.4-5.4-1.8-4.6-7.2-5.5c-11.1-3.5-16.1-14-13.9-25.2c-7.7-21.2-12.3-20.6-18.2-2c-6.5,10.4-13.4,19.9-22.2,28.2
		c-5,3.8-13.1,8.3-16.2,14c0.1,14.8-4.3,28.2-19.6,32c-9,14.8-28.4,23.6-41.7,8.8c-14.8-4-18.6-5.2-26-18.4
		c-7.7-6.4-19.3-15.4-14.8-27c0-4.7-7.2-15.5-2.7-20c6.1-20.3,14.1-28.1,33.7-34.9c0.5-0.6,1-1.2,1.7-1.8
		c16.7-29.8,53.2-44.9,85.9-46.8c4.7,0,9.6-0.1,14.4-0.2c13.9-2.7,24-10.3,28.6,9c7.4,13.3,17,25.7,26.3,37.8
		c8.3,3.4,25.3,15.5,16.8,26.9c0,11.8,40,15,48.8,19.8c1.5,0-2.2-10.5-2.6-12.5c-1.1-12.3,1.8-19.2,11.7-26.7
		c-0.7-19.7,8.9-39.7,31.3-38.2c2.3,1,3.7,1.8,6.1,1.8c33.5-20.2,79.5-6.4,72.2,37.9c-9.1,10.7,12.9,15.6,1.9,26.6
		c-1.9,6.5-5.5-0.4-8.8,6.1c-18,0-1,14.2,6.6,14.2c12-9.3,9.1-5.4,5.2-17.8c-1-8.8,13.9-14,20.8-11.3c5.8,7.7,13.1,22.7,3.6,30.2
		c-6.8,2.5-27.1-2.1-13.2,6.1c13.2,15.2,4.2,35.5-11.1,44.6c-10.4,3.5-10.4,3.5-11.7,4.2c-11.9,14.8-23.3,19-42.2,19
		c-4.5-0.7-9.7-3.2-12.2,1.7c-0.9,15.2-11.5,29.9-18.7,42.8c-14.7,13.3-19.2,41.6-35.4,52.3c-11.6,21-38.2,35.5-54.6,51.9
		c-12.4,6.5-22.3,16.4-35.7,20.9c-17.4,8.7-21.3,5.9-5,18.4c8.6,7.6,14.8,16.9,25.6,20.8c5.4,4.7,5.1,9.7,5.1,16.5
		c-4,6.7,0.6,16.3,0.9,24.6c-4.1,11.4-4.7,8.9,8.9,8.9c19.3,7,19.6,28.5,9.8,44.4c-21.6,15.1-40.6,17.2-66.7,22.5
		c-12.3,0-24.6,0-36.9,0c-30.3-1.8-60.8-3.6-57.9-41.8c1.8-8.8,1.7-9.6,7.7-15.4c0-4.1-8.9-3.3-11.7-3.3
		c-2.5,8.3-23.7,14.8-26.7,6.6C273.1,500.3,268,499.9,265.1,501.3L265.1,501.3z"/>
	<path class="st1" d="M375.7,549.9c0.6,0,1.3-0.1,2-0.2c2.6-0.1,6.4,0,2-1.4c3.5,0.1,7,0.2,10.5,0.3c-3.2,0.4-1.8,1.2,0.4,1.5
		C379.8,550.2,379.8,550.2,375.7,549.9L375.7,549.9z"/>
	<path class="st2" d="M327.3,538.3c0,0.1,0.1,0.3,0.2,0.4c15.4,6.5,32.2,8.4,48.8,9.4c1.5,0,1.5,0.2,1.5,1.6c-0.7,0.1-1.4,0.2-2,0.2
		c-11.1,0-54.1-4.7-55.7-14.6C322.3,535.7,325.1,537.5,327.3,538.3L327.3,538.3z"/>
	<path class="st3" d="M390.7,550.1c-2.1-0.3-3.5-1.1-0.4-1.5c1.1-0.3,1.1-0.3,7.6-0.4c0,1.2,0.6,0.3,0.6,1.2
		C395.9,549.8,393.4,550.1,390.7,550.1L390.7,550.1z"/>
	<path class="st3" d="M377.8,549.7c0-1.4,0-1.6-1.5-1.6c2.9-0.1,2.9-0.1,3.5,0.2C384.2,549.7,380.4,549.6,377.8,549.7L377.8,549.7z"
		/>
	<path class="st4" d="M398.6,549.3c0-0.9-0.6,0-0.6-1.2c1.5-0.1,3.1-0.2,4.6-0.3c2.6,0.9-1.3,1.1-2.3,1.3
		C399.8,549.2,399.2,549.2,398.6,549.3L398.6,549.3z"/>
	<path class="st5" d="M400.3,549.2c1-0.2,4.9-0.4,2.3-1.3c3,0,5.7-0.6,8.5-0.9c0,1.6-0.1,1.3,1.5,1.8
		C408.5,548.9,404.4,548.8,400.3,549.2L400.3,549.2z"/>
	<path class="st4" d="M411.1,547c2.4-0.4,4.8-0.7,7.3-1c4.4,0,0.6,0.5,0,1.8c-1.9,0.2-4.1,0.2-5.8,1.1
		C411,548.3,411.1,548.6,411.1,547L411.1,547z"/>
	<path class="st6" d="M418.4,547.7c0.6-1.2,4.4-1.8,0-1.8c1.3-0.1,2.7-0.2,4.1-0.3c-0.4,1.4,0.9,0.9,2,0.9
		C422.5,546.9,420.5,547.3,418.4,547.7L418.4,547.7z"/>
	<path class="st7" d="M422.5,545.7c4.7-1.3,9.5-2.7,14.3-4.1c0.4,1,0.4,1,0.9,1.3c-4.1,1.3-9.5,2-13.2,3.7
		C423.4,546.6,422.1,547.1,422.5,545.7L422.5,545.7z"/>
	<path class="st8" d="M328.3,536.3c-2-4.1-11-5.5-13.6-9.9c4.8,1.6-2.5-5.4-2.5-4.1c-3.5-3.5-0.3-10.1,0.9-14
		c0.1,0.1,0.2,0.3,0.3,0.4c4.2-5.4,5.2-1.6,7.6-2.4c0.9,1.2,1.8,2.5,2.6,3.9c0,1.1,0.9,4.5,2.1,2.6c26.8,27.4,78.1,27.1,107.2,2.5
		c5.5,0,12.9,17.8,9.3,21.4c-23.3,4.8-44.9,12.4-68.9,7.9C356.6,544.1,344.1,540.5,328.3,536.3L328.3,536.3z"/>
	<path class="st2" d="M437.7,542.9c-0.5-0.3-0.5-0.3-0.9-1.3c12.6-5.5,22.3-9.2,31.9-19.1c0.3,0,0.5,0,0.9-0.1
		C469.6,532.3,444.7,539.4,437.7,542.9L437.7,542.9z"/>
	<path class="st7" d="M446.9,534.7c-3.8-3.8-7.4-16.2-11.7-21.8C437.6,501.2,454.7,534.7,446.9,534.7L446.9,534.7z"/>
	<path class="st8" d="M452.6,531.9c-0.2-0.2-0.5-0.6-0.9-1c-2.4-14.7-17.3-21.9-13.5-37c2.8-3.7,10.2-2.2,14.1-2.1
		c15.9,4.5,16.2,11.6,16.2,27.4C464.5,523.6,458.6,530.4,452.6,531.9L452.6,531.9z"/>
	<path class="st9" d="M375.7,529.4c-16.8-2.8-56.1-10.2-51.9-35.8c1.7-2.8,5.4-5.2,7.8-7.6c0-13.6,4.8-16,12.6-26.2
		c6.5-3.2,20.2,9.8,25.5,13.2c12.5,3.6,17.1,3.1,0.1-3.1c-12.7-7.1,14.7-0.9,21.8-4.4c0-0.7-17.5-1.8-20.8-2.3
		c-11-3.2-48.4-16.4-48.4-31.7c0.7-0.3,5.7-1.8,4.6-2.9c-26.9-0.6-50-22.9-47.5-50.8c1-4.4,12.4-27.9,1.5-12.7
		c-1.5,11-5.9,6.9-6.8-1.9c3.2-29.8,24-42.9,52.3-42.9c0.5,2.1-2.2,4-3.7,5.4c-13.9,21.2,8.3,53.9,21.6,69.4c0,3-13.8,0-11.5,4.6
		c25.4-1.2,47,2.9,70.2,13c11.5,7.9,21.3,14.8,30.3,25.2c16.1,10.2,5.6,14.3,10.1,29.9c0,13-7.4,26.1-17.4,34.1
		c-1.1,7.1,9.3-7.4,10.4-0.6C426.7,523.9,397.9,528.6,375.7,529.4L375.7,529.4z"/>
	<path class="st2" d="M314.7,526.4c-1.4-1.8-1.4-1.8-2.5-4.1C312.2,521,319.6,528,314.7,526.4L314.7,526.4z"/>
	<path class="st8" d="M185.7,497.4c0.4,0.2,0.9,0.4,1.3,0.5c0,4.8,0,9.5,2.2,14c5.9,23.3,19.4-5.3,26.4-9c0.4-0.4,1-1,1.5-1.5
		c2,0,5.7-2.4,7.8-3.1c0.3-2.6-7.1,1.7-8.4,2.6c-0.7,0.3-1.4,0.6-2.2,1c0-3.8-9.4-3.2-9.9-7.7c0,0,0.1-0.1,0.2-0.2
		c6.9,1,16.1-0.9,21.6,1c0.6,0.8,3.9,5.6,4.3,5.9c5.8,9.7-34.1,27.7-41.1,23.4C186.6,520.1,180.8,499.8,185.7,497.4L185.7,497.4z"/>
	<path class="st10" d="M175.8,519.9c-1.2-1.7-4.8,0-5.5-2.3C172.3,517.7,184.6,519.3,175.8,519.9L175.8,519.9z"/>
	<path class="st0" d="M384.1,518.7c-12.5-3.5-23.2-1.2-35.5-7.7c-1.7-1-22.6-14.7-15.5-17c16.7,26.7,66.8,26.9,90.6,11.9
		c3.2,0,0.2,2.2-0.9,3.1C410.7,515.6,397.9,518.6,384.1,518.7L384.1,518.7z"/>
	<path class="st8" d="M193.8,515.2c4.1,2.7-2.4-8.3-2.4-4.6c-2.1-3.2-1.4-9.6-0.7-13.3c3.4-1.7,11.6,0.3,15.6,1
		c-4.2,0,1.2,3.6,2,1.1c1.8,0.6,1.8,0.6,4.6,2.4c-3.7,0-14.9,14.9-13.3,14.9C197.5,517.8,194.4,517.8,193.8,515.2L193.8,515.2z"/>
	<path class="st11" d="M212.9,501.8c0.2,0.1,0.3,0.3,0.5,0.4c-2.9,4.7-10,10.3-13.9,14.5C198,516.7,209.2,501.8,212.9,501.8
		L212.9,501.8z"/>
	<path class="st12" d="M174.9,513.7c-1.4,1.8,5.9,1.4,0.9,0c9.4,0,10.1,2.6-2.1,1.2C173.7,514,174.2,514,174.9,513.7L174.9,513.7z"
		/>
	<path class="st13" d="M193.8,515.2c-2.4-3.9-2.4-3.9-2.4-4.6C191.4,506.9,198,517.9,193.8,515.2L193.8,515.2z"/>
	<path class="st14" d="M174.9,513.7c0.3,0,0.5,0,0.9,0C180.8,515.1,173.5,515.5,174.9,513.7L174.9,513.7z"/>
	<path class="st2" d="M323.6,510.1c0.7,0.9,1.4,1.8,2.1,2.6C324.5,514.6,323.6,511.2,323.6,510.1L323.6,510.1z"/>
	<path class="st12" d="M180.5,512.6c-4-0.6,1.8-3.8,1.8-0.3C181.7,512.4,181.1,512.5,180.5,512.6L180.5,512.6z"/>
	<path class="st15" d="M148,510.7c-0.3-0.4-0.6-0.9-1-1.4C147,507.5,151.7,510,148,510.7L148,510.7z"/>
	<path class="st16" d="M163.8,509.7c0.5-1.1,3-1.5,3,0C165.8,509.7,164.8,509.7,163.8,509.7L163.8,509.7z"/>
	<path class="st2" d="M313.1,508.2c2.2-3.5,5.3-6.4,7.9-1.9c-2.5,0.8-3.4-3.1-7.6,2.4C313.2,508.5,313.1,508.3,313.1,508.2
		L313.1,508.2z"/>
	<path class="st17" d="M176.1,507.5c-1.4-0.1-27.4-3.3-26.5-5.1C150.5,502.4,193.5,507.5,176.1,507.5L176.1,507.5z"/>
	<path class="st12" d="M145.4,505.8c-2.5-1.7,1-2.2,1-0.3C146.1,505.6,145.7,505.7,145.4,505.8L145.4,505.8z"/>
	<path class="st17" d="M179.8,502.9c-12.1-0.9-24.1-5-36.2-5c0-4.8,29.6,2.5,36.6,3C181.5,501.8,181.3,502.7,179.8,502.9
		L179.8,502.9z"/>
	<path class="st18" d="M217.1,501.4c0-0.5-0.1-0.5-0.6-0.5c1.3-0.9,8.7-5.2,8.4-2.6C222.8,499.1,219.1,501.4,217.1,501.4
		L217.1,501.4z"/>
	<path class="st19" d="M206.3,498.3c0.6,0.3,1.3,0.7,2,1.1C207.5,501.9,202.1,498.3,206.3,498.3L206.3,498.3z"/>
	<path class="st20" d="M226.1,495c3.1,0.5,3.3,3,4.3,5.9C230.1,500.6,226.8,495.8,226.1,495L226.1,495z"/>
	<path class="st9" d="M284.9,500.5c-6.4-2.7-2.4-4.3-3.8-4.7c-13.2,2.5-39.9,5.1-52.1-3c0.1-0.8,0.1-0.8,0.9-1.8
		c22.7-17.4,28.3-52.9,14-77.3c-1.4-8.9,21.6,7.6,23,8.6c9.9,9.9,22.6,22,25.6,36.1c5,14.3-0.1-6.7-1.7-10.2
		c-8.2-14.2-14.7-20.7-27.4-30.8c-4.9-11.1,7.3-57.6,14.1-42c-4.2,28.9,13.3,46.8,39.9,55.3c13.3,13.3-4.7,36.5-10.5,49.2
		c-1.8,2.4-9.7,10.5-10,11.4C306.5,490.5,289.5,499.9,284.9,500.5L284.9,500.5z"/>
	<path class="st17" d="M171.3,497.9c-6.1-1.3-27.2-3.5-27.7-6.5C144.6,491.4,177.4,497,171.3,497.9L171.3,497.9z"/>
	<path class="st21" d="M185.7,497.4c0-0.7,0-1.4,0.1-2.2c1.1,1.1,1.1-0.8,1.9-0.8c-0.5,1.3-0.5,1.3-0.7,3.5
		C186.5,497.8,186.1,497.6,185.7,497.4L185.7,497.4z"/>
	<path class="st2" d="M185.8,495.2c1.7-12,6.8-24.2,16.3-32c0.3-4.3,2.4-6.9,4.6-10.5c7.8-19.1,3.5-25.3-0.8-42.7
		c2.5,0,4,5.5,4.3,7.4c14.6,31.8-15.4,50-22.5,77C186.9,494.4,186.9,496.3,185.8,495.2L185.8,495.2z"/>
	<path class="st8" d="M204.5,494c-0.1,0.1-0.2,0.2-0.2,0.2c-14.5,2.6-13.9,2.3-9.3-9c14.4-26.9,30.6-43.3,15.9-74.1
		c-3.3-3.3,1.7-1.3,3.1-0.6c24.1,19.6,14.3,59.6-4.7,78.7C207.6,490.1,204.5,491.7,204.5,494L204.5,494z"/>
	<path class="st17" d="M172.9,493.7c-8.3-3.3-21.6-0.6-29.1-5.1C143.9,483.6,188.9,492.4,172.9,493.7L172.9,493.7z"/>
	<path class="st22" d="M211.8,492.2c-0.6-0.6-0.4-0.9-0.1-1.6c21.3-19,32.1-65.8,3-82.9c-6.5-1.2-1.5-3.9,2.2-5.3
		c38.9,0,35.6,53.1,21.2,76.7C228.9,486.6,225.4,491.8,211.8,492.2L211.8,492.2z"/>
	<path class="st23" d="M181.1,490.8c-7.8-4.1-35.8-3.3-36.8-9.1c0.4-0.6,11.2,1.4,24.3,3.7C171,485.5,189.8,489.2,181.1,490.8
		L181.1,490.8z"/>
	<path class="st24" d="M321.3,465.9c0,2,4.7-2.5,4.7-3.1c3,1.1,1.7,4,3.3,3.7c-4.9,7.8-4.6,32.2-22.3,23.3
		C311.7,481.9,316.5,473.9,321.3,465.9L321.3,465.9z"/>
	<path class="st17" d="M182.9,486.1c-5.9-3.9-37.2-5-37.2-9c3.3-1.2,33.8,3.5,38.7,7.4C184.3,485.9,184.3,485.9,182.9,486.1
		L182.9,486.1z"/>
	<path class="st14" d="M182.2,482.1c-4.5-1.1-51.6-11.3-28.1-8.1C155.4,474.3,191.7,480.3,182.2,482.1L182.2,482.1z"/>
	<path class="st17" d="M185.8,478.5c-5.1-1.2-37.5-6.1-37.5-8.9C150.3,467.5,193.2,477.3,185.8,478.5L185.8,478.5z"/>
	<path class="st17" d="M188.3,475.5c-0.7-0.5-1.5-1.1-2.3-1.8C186.3,470.5,192.3,473.2,188.3,475.5L188.3,475.5z"/>
	<path class="st17" d="M179.3,472.9c-5.5-1.4-9.4-2-21.8-4.8C157.6,465.4,186.7,470,179.3,472.9L179.3,472.9z"/>
	<path class="st23" d="M190.3,470.9c-12.5-2.5-25.9-6.8-38.5-8.2C151.8,456,199.4,469.1,190.3,470.9L190.3,470.9z"/>
	<path class="st14" d="M151.3,467.5c-4.7-1.6,1.2-4.1,1.2-0.3C152.1,467.4,151.7,467.5,151.3,467.5L151.3,467.5z"/>
	<path class="st25" d="M321.3,465.9c6-17.9,2.8-17.8,15-8.3c0,1.7-5.9,7.2-7.1,9c-1.6,0.3-0.3-2.5-3.3-3.7
		C326.1,463.3,321.3,467.9,321.3,465.9L321.3,465.9z"/>
	<path class="st14" d="M193.6,466.7c-12.2-3.8-25.2-5.8-37.8-8.2c-8.5-4.2,17,1.8,17.7,1.8c6.7,1.9,13.8,3.6,20.6,4.9
		C194.1,466.2,194.5,466.4,193.6,466.7L193.6,466.7z"/>
	<path class="st23" d="M196.5,463.7c-1.1-0.2-38.1-6.9-35-10.6C162.9,453.1,209.2,461.1,196.5,463.7L196.5,463.7z"/>
	<path class="st17" d="M168.8,447.6c0-0.3,0-0.5,0-0.9c10.3,0,22.7,3.4,32.6,5.2c9.4,4-23.4-1.2-27-3.2
		C172.6,448.3,170.7,448,168.8,447.6L168.8,447.6z"/>
	<path class="st26" d="M168.2,450.5c-9.3-1.3-9.6-2.4,0.9-1.1C170.6,450.6,169.4,450.5,168.2,450.5L168.2,450.5z"/>
	<path class="st17" d="M202.2,450.5c-0.6-0.1-40.8-6.5-29.6-7.7c10.4,2.5,22.4,5,33.1,5.5C206,450.4,203.5,450.4,202.2,450.5
		L202.2,450.5z"/>
	<path class="st26" d="M168.8,446.7c0,0.3,0,0.6,0,0.9c-2.6-1-8.3,0-8.8-2.6C162.2,445.3,167.3,445.3,168.8,446.7L168.8,446.7z"/>
	<path class="st15" d="M205.9,446.5c-0.3-0.3-0.7-0.5-1-0.9C204.8,442.4,209,445.4,205.9,446.5L205.9,446.5z"/>
	<path class="st23" d="M198.5,445.6c-12-2.3-24.3-5.3-35.9-6.4c0-6.2,32,3.4,37.9,4.6C200.2,445.3,200.1,445.4,198.5,445.6
		L198.5,445.6z"/>
	<path class="st27" d="M162.9,443.4c-4.8-2,1.5-3.3,3-0.4C165.4,443.3,165.4,443.3,162.9,443.4L162.9,443.4z"/>
	<path class="st23" d="M206.3,441.9c-6-1.3-41.3-5.1-41.3-8.7c4.6-3.1,34.8,5.5,42.6,6.8C208.8,441.2,207.5,441.7,206.3,441.9
		L206.3,441.9z"/>
	<path class="st17" d="M206.7,437.8c-5.8-2.6-31.9-4.2-31.9-7.8c5.9,0,33.9,2.8,33.9,7.1C208.3,437.5,208.3,437.5,206.7,437.8
		L206.7,437.8z"/>
	<path class="st28" d="M201.3,431.8c0.8-0.1,1.5-0.1,1.7-0.9c1.6,0.3,2.7,0.3,4.4,0c0,0.8-1,0.5-0.3,2
		C205.3,432.6,203.3,432.3,201.3,431.8L201.3,431.8z"/>
	<path class="st17" d="M207.2,433c-0.7-1.5,0.3-1.2,0.3-2C209.7,431.4,209.3,432.7,207.2,433L207.2,433z"/>
	<path class="st23" d="M203,430.9c-0.3,0.8-1,0.8-1.7,0.9c-6.1-0.5-32.3-2.9-31.5-6.9C174.3,422.7,201,428.9,203,430.9L203,430.9z"
		/>
	<path class="st14" d="M167.9,430.8c-2.6-1.2,1.9-3.8,1.9-0.9C169.2,430.6,168.8,430.6,167.9,430.8L167.9,430.8z"/>
	<path class="st23" d="M207.4,428.7c-4.3-2.1-39.3-5.1-33.1-9.1c1.8,0.3,34.9,4.7,34.2,8.9C208.1,428.6,207.8,428.7,207.4,428.7
		L207.4,428.7z"/>
	<path class="st17" d="M206.1,423.7c-18.5-3.3-18.5-3.3-19.7-3.9C186.5,414.7,210.7,422.8,206.1,423.7L206.1,423.7z"/>
	<path class="st17" d="M205.1,419.7c-8.1-3.4-17.8-2.7-26.2-4.9C178.8,408.8,209.4,418.6,205.1,419.7L205.1,419.7z"/>
	<path class="st23" d="M179.2,418.6c-5.6-0.9-2.3-3,1.4-1.1C180.6,418.6,180.2,418.5,179.2,418.6L179.2,418.6z"/>
	<path class="st17" d="M203.7,415c-1.7-0.7-3.9-1.1-4.3-3.2C200.5,412,206.3,413.2,203.7,415L203.7,415z"/>
	<path class="st17" d="M194.3,413.5c-2-1.2-7.2-1.6-9.8-2C184.5,406.8,202.9,411.9,194.3,413.5L194.3,413.5z"/>
	<path class="st17" d="M198.2,410c-1-1.1-4.8-1.1-6.2-1.1C188.3,405.2,206,409.1,198.2,410L198.2,410z"/>
	<path class="st29" d="M350.4,375.2c-1.2,0.3-1.3,1.5-0.7,2.6c-4.9,3.3,9,15.1,9.6,18.4c-2.6,0-5.3,0-7.9,0.1
		c-13-11.4-42.1-50.4-26.4-68c0.2,0.1,0.3,0.2,0.6,0.3C324.3,351.8,331,361.4,350.4,375.2L350.4,375.2z"/>
	<path class="st30" d="M349.7,377.8c-0.6-1.1-0.5-2.3,0.7-2.6C357.4,379.2,360,380.9,349.7,377.8L349.7,377.8z"/>
	<path class="st31" d="M372.1,238c-1.2,0-3.3,0-3.1,1.5c-14-8.3-22-22.8-11.9-36.7c1.9-14.7,6.3-18,14.8-30.4
		c3.2-10.1,12.4-11.7,21.6-15.2c13-10.1,25.6-3.8,34.8,7.9c2.8,0-0.5-3,2.8-3.5c15.4,3.1,20.2,14.3,17.9,28.8
		c0,2.5,1.7,17.2-0.9,18.3c-1.6-0.9-2.4-1.8-2.8-0.3c18.4,26.3,23.9,46.8,23.9,78.2c-1.4,4,0.3,3,1.4,0c3.3-12,13.1-10.2,23.6-13.8
		c15.8-8.5,22.6,16.8,13.9,22.4c-7.6,2.9-15.1,5.8-22.7,8.7c-11.8,3.6-26.9,6.1-35.6,15.3c-4.5,2.9-12.5,2-12.5-4
		c-31.7-17.7-44.2-26.1-58.2-61.3C378.4,251,373.7,222.2,372.1,238L372.1,238z"/>
	<path class="st22" d="M512.8,295.5c-0.5-0.3,5.6-30.5-13.8-27.3c-5.5,2.6-6.4,3.2-4.9-2.7c4.3-6,9.2-7.4,15.9-10.2
		C534.3,255.3,538.3,293.9,512.8,295.5L512.8,295.5z"/>
	<path class="st32" d="M469.2,286.7c0.4,0,0.9,0,1.4,0C469.5,289.7,467.8,290.6,469.2,286.7L469.2,286.7z"/>
	<path class="st0" d="M411.1,254.9c-1.1-1.7-2.2-3.6-3.3-0.6c-1.8,7-1.8-1.1,0.8-4.6c-0.3-1.5-2.3-6.6-0.4-7.2c1.5,3.9,1.3,5,5,6.1
		c0,0.3,0.1,0.5,0.2,0.8c-4.7,3.7,9.2,23.3,12.6,22.8c10.5-5.6-6.2,6.1,6.9,7.7c12.4,4.5-4.7,14.8-3.7,1.1c-4.9-5.3-4-5.9-9.9-2.5
		c-3,0,3-3.9,3-5.5C418.1,267.3,414.6,261.1,411.1,254.9L411.1,254.9z"/>
	<path class="st33" d="M433.3,286.1c-4-1.8-1.8-5.7,2.2-2.2C435.4,285.7,434.9,285.9,433.3,286.1L433.3,286.1z"/>
	<path class="st34" d="M473.6,270.7c-3.5-4.7,5.6-8.6,1.9-0.5C475,270.5,475,270.5,473.6,270.7L473.6,270.7z"/>
	<path class="st35" d="M407.8,254.3c1.1-3,2.3-1.1,3.3,0.6C411.1,256,407.9,255.6,407.8,254.3L407.8,254.3z"/>
	<path class="st36" d="M481.6,254.3c-7.7-4.5,2.2-10.8,3.8-4.5C484.6,251.7,483.8,253.8,481.6,254.3L481.6,254.3z"/>
	<path class="st30" d="M517.6,254c-3.6-1.4,7.5-15.5,9-16.2C527.2,240.5,520.3,252.9,517.6,254L517.6,254z"/>
	<path class="st37" d="M413.3,249.4c-0.1-0.3-0.2-0.5-0.2-0.8C418,247.7,423.3,251.3,413.3,249.4L413.3,249.4z"/>
	<path class="st35" d="M369,239.5c-0.3-1.5,1.9-1.5,3.1-1.5C372.9,241.6,371.6,242.2,369,239.5L369,239.5z"/>
	<path class="st36" d="M491,228.7c6.7,4.5-5.1,11.3-3.6,2.3C488.4,229.9,489.5,229.1,491,228.7L491,228.7z"/>
	<path class="st38" d="M560.2,228.1c-20.7-15.9-36.5-0.8-60.1-2c-1-11.3,40-12.4,46.9-12.4C550.8,216.5,566.2,222.2,560.2,228.1
		L560.2,228.1z"/>
	<path class="st39" d="M461.6,150.2c0-4.4,0-8.8,0-13.2c-1-8.1,6.8-0.9,9.3,2.8c1.1,12.6,0.7,25.4,3.8,37.8c2,5,20.6,44.5,16.3,50.3
		c-2.3-1.7-2.3-4.7-3.2-7.3C474.2,202,458.1,174.2,461.6,150.2L461.6,150.2z"/>
	<path class="st31" d="M489,174.1c0,2.6,3.2-0.3,0.5-0.9c3.7-3.2,7-3.6,11.5-1.8c-0.4,0.5-7,10.2-4.5,9.4c2.9-4,11.8-17.3,16.5-17.3
		c6.2,10,12.6,16.4,22,6.5c-0.9-3.6-4.2,1.6-5.9,2.2c-22.2,0-13.8-39.4,4.3-18.2c3.3-1.7-6.2-8.9-7.1-9.5c-9.6,1.8-8,1.3-11.1-8.1
		c-2.9-19.3,5.8-28.8,22.4-34.8c7.5-1.1,39-6.9,43.7,2.7c2.6,2,6.1,0.4,8.2,2.7c-2.4,0,3.3,5.4,3.3,2.3c2.2,2.2,4,3.5,6.8,5.6
		c-1.4,0.9,3.5,6.6,4.2,3.8c6,7.4,5.1,6-1.7,12.1c-1.5,3.9-3,7.8-4.5,11.8c-0.9,0-1.8,0-2.6,0c0.9-13.4-0.7,9.3-5.5,0.4
		c-1.3-9.3-14.3-43.4-21.6-18.4c0,4.3,1.2,2.3,2-0.9c7.5-11.1,25.3,21.1,11.4,17.6c-15.9,0.7,4.9,5.2,9.6,8.4c2.6,0,5.2-0.6,7.9-0.6
		c7,10,8.2-3.5,4.7-9.4c0.5-4.1,1.6-6.8,4.2-10c0,1.4,0.3,1.3,1.5,1.7c-2.3,6.3,3.2,20.2,2.8,20.8c-2.1,0.7-15.5,7.7-10.7,8.9
		c24.5-17.6,32,7.1,11,18.1c-6.6-0.2-18.1-0.1-18.1-9.5c1.3-2.7,6.9-2.2,9.4-2.3c3,1.6,5.3,0.8,0.6-0.9c-3.7-3.2-9.7-0.8-12.5,2.3
		c-4.4,17.6,38.8,19.3,37.2-6.5c-2.9-8.2,9.7-0.3,12.6,1.5c9.8,12.6,1.7,24.6-7.5,34.1c-2.8,1.1-5.9,3.4-9,3.1
		c0-1.8,3.2-8.9,0.8-8.9c-0.9,1.2-0.9,1.2-5.4,11.1c-26.9,31.2-63.2,18.8-85.6-11.1c-0.8-2.5-5.5-22.7-7-10.5
		c-2.7,1.3-5.5-8.6-5.5-3c5,10.1-13.3,17.3-17.9,25.5c2.5-0.3,4.7-1.3,7.1-1.7c-0.8,3.2-13.6,23.1-16.9,22.3
		C490.1,210.5,481.4,189.4,489,174.1L489,174.1z"/>
	<path class="st39" d="M516.2,209.3c-2.2-1.4,7.5-27.7,12.5-22.7c2.3,6.5,5.3,11.8,9.1,17.6C537,206.9,520.2,208.8,516.2,209.3
		L516.2,209.3z"/>
	<path class="st31" d="M338.3,182c1.7-1.2,6.8-4.2,7.7-6.8c-2.7,0-6.1,4-8,6c-1.6,0.9-15.1,7.1-10.7,8c15.5-5.2-4.7,9.8-8.6,11.2
		c-8.7,0.3-12.2-2.5-20.1-5.6c-20.2-3.3-14.2-15.9-28.7-22.8c-12.6-11.8-4.4-18.9-11.3-32.3c0.8-9.5,14.7-35.4,26.6-33.4
		c0.4,1.2,0.4,2.3,2,2c18.8-26.2,43.8-45.8,76.9-49.4c9.7,0,20.2-1.6,29.8-2.6c13.8-6,16.3-6.8,19.9,8.3c6.3,9.9,6.3,9.9,24,36.4
		c-0.3,1.4-13.9,9-16.6,12.2c-1.1,0-15.5-16.5-16-19.5c6.4-9.1,4.6-7.2-0.3-2.4c-3.2,0,2.8-14.4-1.1-15.4c-6,34.6-27.3,54.5-49.2,80
		c-1.5,1.1-5.4,3-2.5,4.1C363.2,174.7,334,190.7,338.3,182L338.3,182z"/>
	<path class="st40" d="M338.3,182c-0.1-0.3-0.2-0.5-0.3-0.9c1.9-1.9,5.3-6,8-6C345.1,177.8,339.9,180.8,338.3,182L338.3,182z"/>
	<path class="st39" d="M483.5,179c-3-11.4,0.7-25.1-3.9-35.5c0-3.8,25.2,4.4,28.7,5.9c7.9,5.4,2.8,10.7-3.1,14.4
		c-12.6-1-16.6,3.3-21.1,15C484,178.8,483.8,178.9,483.5,179L483.5,179z"/>
	<path class="st0" d="M580.6,161.8c0.6,0,1.3,0,2,0c2.6,1.3,7.4,0.4,9,3.6c-9-1-30.7-2.4-33.2,10.2c-3.2,4.5-14.1-2.6,7.4-11.8
		C570.7,163.1,575.6,162.1,580.6,161.8L580.6,161.8z"/>
	<path class="st35" d="M489,174.1c0.3-0.8,0.3-0.8,0.5-0.9C492.2,173.9,489,176.7,489,174.1L489,174.1z"/>
	<path class="st41" d="M603.7,167.7c0.2-0.3,0.3-0.5,0.6-0.9C609,168.5,606.6,169.3,603.7,167.7L603.7,167.7z"/>
	<path class="st37" d="M549.1,164.9c0,0,0,0.1,0.1,0.2C545.9,170.5,545.9,166.1,549.1,164.9L549.1,164.9z"/>
	<path class="st0" d="M549.2,165.1c-0.1-0.1-0.1-0.2-0.1-0.2c0-8.2,29.2-11.2,34-5.9c-0.3,0.6-0.7,0.6-1.4,0.6
		c-0.3,0-0.5-0.1-0.9-0.2c-11.5-3-20.6-1.3-30.7,5.6C549.8,165.1,549.6,165.1,549.2,165.1L549.2,165.1z"/>
	<path class="st42" d="M524.6,157.6c0.3,1,0.4,1.7,1.2,2.2c-0.2,0.3-0.4,0.5-0.6,0.9c-0.3,0.1-0.3,0.1-0.8,2.4
		C522,164.3,524.6,157.9,524.6,157.6L524.6,157.6z"/>
	<path class="st35" d="M525.3,160.7c0.3-0.3,0.4-0.6,0.6-0.9c1.2,0.2,1.5,0.6,2.3,1.4C527.8,162.8,525.3,162.1,525.3,160.7
		L525.3,160.7z"/>
	<path class="st0" d="M528.2,161.2c-0.8-0.8-1.1-1.2-2.3-1.4c-0.8-0.5-1-1.2-1.2-2.2c-1.6-1.1-4.1,0.4-4.8-1
		C524.6,150.1,530.9,162.9,528.2,161.2L528.2,161.2z"/>
	<path class="st35" d="M580.6,161.8c-3-0.4-1.8-1.8,0.3-2.4c0.4,0.1,0.6,0.2,0.9,0.2c1.9,0.6,3.7,1.3,0.9,2.2
		C581.9,161.8,581.2,161.8,580.6,161.8L580.6,161.8z"/>
	<path class="st29" d="M635,153.9c0.2,0.2,0.3,0.4,0.6,0.6C632.8,157.4,631.8,156.2,635,153.9L635,153.9z"/>
	<path class="st43" d="M635.6,154.6c-0.3-0.3-0.4-0.4-0.6-0.6c1.2-1.2,2.5-2.4,3.8-3.7c0.2,0.4,0.3,0.7,0.6,1.1
		C638.2,152.4,636.9,153.4,635.6,154.6L635.6,154.6z"/>
	<path class="st29" d="M647,152.4c-6-3,2.7-5.5-6.1-8.4c-5-14.6-1-7.5,10.6-14.1C658,129.9,662.8,151.5,647,152.4L647,152.4z"/>
	<path class="st44" d="M639.4,151.3c-0.3-0.3-0.4-0.7-0.6-1.1C642.2,145.9,646.8,145.3,639.4,151.3L639.4,151.3z"/>
	<path class="st35" d="M595.1,142.7c0.9,0,1.8,0,2.6,0C597.3,147.6,595.7,148.2,595.1,142.7L595.1,142.7z"/>
	<path class="st9" d="M430.4,138.4c-29.2-16.1,16.8-55.7,25.8-19.4c-0.4,2.8-24.8,1.7-24.8,19.3
		C431.1,138.3,430.8,138.3,430.4,138.4L430.4,138.4z"/>
	<path class="st30" d="M614.8,135.2c-4.3-0.7-4.1-6.1-0.6-6.7C617.5,132.5,620,133.6,614.8,135.2L614.8,135.2z"/>
	<path class="st45" d="M559.1,133.9c-3.2-2.4-2.8-7-2.7-10.6C557.6,120.8,558.8,132.2,559.1,133.9L559.1,133.9z"/>
	<path class="st30" d="M620.4,133.5c-1.9-2.6-15.5-14.3-9.3-12.8C612.7,121.7,630.3,131.9,620.4,133.5L620.4,133.5z"/>
	<path class="st34" d="M644,130.9c-1.6,1.6-10.1,1.6-3.7-0.8C641.8,130.1,642.7,130.3,644,130.9L644,130.9z"/>
	<path class="st35" d="M609.3,131.7c-1.2-0.4-1.5-0.3-1.5-1.7C610.1,127.7,610.9,129.1,609.3,131.7L609.3,131.7z"/>
	<path class="st34" d="M646.6,130.1c1.1-1.9,2-2.5,3.9-3.8C654,126.3,648.4,130.6,646.6,130.1L646.6,130.1z"/>
	<path class="st30" d="M625.6,129.1c-6.3-5.6-36.3-18.4-34.4-26.9C594.9,96.1,640.1,123.3,625.6,129.1L625.6,129.1z"/>
	<path class="st46" d="M562.1,120.1c0.2,0.8,0.2,1.3,1.1,1.1c0,1.4,0,2.8,0,4.2C562.1,125.4,561.4,120.1,562.1,120.1L562.1,120.1z"
		/>
	<path class="st0" d="M562.1,120.1c1.3-8.1,12.8-11.9,3.3-4.7c-0.7,1.9-1.4,3.9-2.1,5.8C562.3,121.5,562.3,120.9,562.1,120.1
		L562.1,120.1z"/>
	<path class="st35" d="M599.6,115c1.6,1.1,3.2,2.1,4.2,3.8C603.1,121.6,598.2,115.9,599.6,115L599.6,115z"/>
	<path class="st0" d="M320.4,102.4c0.4,0,0.9,0,1.3,0c2,11.5,5.9-0.8,11.1-3.8c2.6-2.7,7.6-6.3,7.6-10.1c7.2,0,11.6-13.9,16.4-8.2
		c2.7,9-14.8,2.1-10.1,12.8c-1.7,0.5-2.6-1.4-4.9-0.8c-7.9,6.4-26.7,19.3-6.8,20.5c0,4.1-10.1-2.2-14.1,1.9c-2.7,0,0.3-2.9,1-3.9
		C320.9,107.4,318.9,106.3,320.4,102.4L320.4,102.4z"/>
	<path class="st35" d="M589.5,107.1c1.3,0.6,2.4,1.3,3.3,2.3C592.9,112.6,587.2,107.1,589.5,107.1L589.5,107.1z"/>
	<path class="st30" d="M619.4,110.2c-24.8-12.7-66.5-29.7-92.2-9.9c-6.8,13.5-3.4-10.7-0.8-15.6c4.1-5.9,30.2-20,16.9-3.8
		c-2.5,7.9,6.9-2.8,8.3-4.1c24.2-15.3,67-18.5,73.3,17.7C624.7,98.1,624.3,109,619.4,110.2L619.4,110.2z"/>
	<path class="st36" d="M583.5,103.6c-5.4-5.4,6.1-10,5.3-1.7C587.2,103.8,585.7,103.5,583.5,103.6L583.5,103.6z"/>
	<path class="st47" d="M320.4,102.4c0.6-3.3,1-4.8,1.3,0C321.3,102.4,320.9,102.4,320.4,102.4L320.4,102.4z"/>
	<path class="st35" d="M354.5,83.9c-4.9-2.5,0.8-4.6,1.3-1C355.3,83.5,355.3,83.5,354.5,83.9L354.5,83.9z"/>
</g>
</svg>
